<svg width="1803" height="756" viewBox="0 0 1803 756" fill="none" xmlns="http://www.w3.org/2000/svg">
<path d="M48.0129 39.8H60.8009V72H54.8209V44.814H48.0129V39.8Z" fill="#686767"/>
<path d="M108.145 55.0723C108.145 84.4141 84.7505 108.145 55.9605 108.145C27.1706 108.145 3.77649 84.4141 3.77649 55.0723C3.77649 25.7305 27.1706 2 55.9605 2C84.7505 2 108.145 25.7305 108.145 55.0723Z" stroke="#686767" stroke-width="4"/>
<path d="M81.8018 219.587C81.8018 234.315 70.0638 246.198 55.6526 246.198C41.2413 246.198 29.5034 234.315 29.5034 219.587C29.5034 204.86 41.2413 192.977 55.6526 192.977C70.0638 192.977 81.8018 204.86 81.8018 219.587Z" stroke="#686767" stroke-width="4"/>
<line x1="54.8706" y1="110.147" x2="54.8706" y2="193.412" stroke="#686767" stroke-width="4"/>
<path d="M82.2023 354.701C82.2023 369.429 70.4643 381.312 56.0531 381.312C41.6418 381.312 29.9039 369.429 29.9039 354.701C29.9039 339.974 41.6418 328.091 56.0531 328.091C70.4643 328.091 82.2023 339.974 82.2023 354.701Z" stroke="#686767" stroke-width="4"/>
<line x1="55.2711" y1="245.261" x2="55.2711" y2="328.526" stroke="#686767" stroke-width="4"/>
<path d="M83.6709 491.283C83.6709 506.011 71.933 517.894 57.5217 517.894C43.1105 517.894 31.3726 506.011 31.3726 491.283C31.3726 476.556 43.1105 464.673 57.5217 464.673C71.933 464.673 83.6709 476.556 83.6709 491.283Z" stroke="#686767" stroke-width="4"/>
<line x1="56.7397" y1="381.843" x2="56.7397" y2="465.108" stroke="#686767" stroke-width="4"/>
<line x1="57.8079" y1="515.488" x2="57.8079" y2="598.754" stroke="#686767" stroke-width="4"/>
<path d="M140.033 236V210.1H162.344V236H158.718V212.357L159.606 213.319H142.771L143.696 212.357V236H140.033ZM178.228 236.222C176.254 236.222 174.503 235.79 172.974 234.927C171.444 234.064 170.236 232.88 169.348 231.375C168.46 229.846 168.016 228.119 168.016 226.195C168.016 224.246 168.46 222.52 169.348 221.015C170.236 219.51 171.444 218.339 172.974 217.5C174.503 216.637 176.254 216.205 178.228 216.205C180.176 216.205 181.915 216.637 183.445 217.5C184.999 218.339 186.207 219.51 187.071 221.015C187.959 222.495 188.403 224.222 188.403 226.195C188.403 228.144 187.959 229.87 187.071 231.375C186.207 232.88 184.999 234.064 183.445 234.927C181.915 235.79 180.176 236.222 178.228 236.222ZM178.228 233.114C179.486 233.114 180.608 232.83 181.595 232.263C182.606 231.696 183.395 230.894 183.963 229.858C184.53 228.797 184.814 227.576 184.814 226.195C184.814 224.789 184.53 223.58 183.963 222.569C183.395 221.533 182.606 220.731 181.595 220.164C180.608 219.597 179.486 219.313 178.228 219.313C176.97 219.313 175.847 219.597 174.861 220.164C173.874 220.731 173.085 221.533 172.493 222.569C171.901 223.58 171.605 224.789 171.605 226.195C171.605 227.576 171.901 228.797 172.493 229.858C173.085 230.894 173.874 231.696 174.861 232.263C175.847 232.83 176.97 233.114 178.228 233.114ZM190.131 235.963L190.353 232.966C190.526 232.991 190.686 233.015 190.834 233.04C190.982 233.065 191.118 233.077 191.241 233.077C192.031 233.077 192.647 232.806 193.091 232.263C193.56 231.72 193.905 231.005 194.127 230.117C194.349 229.204 194.51 228.181 194.608 227.046C194.707 225.911 194.781 224.777 194.83 223.642L195.163 216.39H210.222V236H206.67V218.462L207.521 219.498H197.457L198.271 218.425L198.012 223.864C197.938 225.591 197.803 227.206 197.605 228.711C197.408 230.216 197.1 231.535 196.68 232.67C196.286 233.805 195.731 234.693 195.015 235.334C194.325 235.975 193.424 236.296 192.314 236.296C191.994 236.296 191.648 236.259 191.278 236.185C190.933 236.136 190.551 236.062 190.131 235.963ZM217.09 236V216.39H220.642V230.672L232.667 216.39H235.886V236H232.334V221.718L220.346 236H217.09ZM246.666 236V218.573L247.554 219.498H239.488V216.39H257.396V219.498H249.367L250.218 218.573V236H246.666ZM261.028 236V216.39H264.58V230.672L276.605 216.39H279.824V236H276.272V221.718L264.284 236H261.028ZM300.926 236L293.341 226.454L296.264 224.678L305.107 236H300.926ZM286.718 236V216.39H290.27V236H286.718ZM289.197 227.712V224.678H295.672V227.712H289.197ZM296.56 226.602L293.267 226.158L300.778 216.39H304.589L296.56 226.602ZM320.495 236V231.856L320.31 231.079V224.012C320.31 222.507 319.866 221.348 318.978 220.534C318.115 219.695 316.808 219.276 315.056 219.276C313.897 219.276 312.762 219.473 311.652 219.868C310.542 220.238 309.605 220.744 308.84 221.385L307.36 218.721C308.372 217.907 309.58 217.29 310.986 216.871C312.417 216.427 313.909 216.205 315.463 216.205C318.152 216.205 320.224 216.859 321.679 218.166C323.135 219.473 323.862 221.471 323.862 224.16V236H320.495ZM314.057 236.222C312.602 236.222 311.319 235.975 310.209 235.482C309.124 234.989 308.285 234.31 307.693 233.447C307.101 232.559 306.805 231.56 306.805 230.45C306.805 229.389 307.052 228.427 307.545 227.564C308.063 226.701 308.89 226.01 310.024 225.492C311.184 224.974 312.738 224.715 314.686 224.715H320.902V227.268H314.834C313.058 227.268 311.862 227.564 311.245 228.156C310.629 228.748 310.32 229.463 310.32 230.302C310.32 231.264 310.703 232.041 311.467 232.633C312.232 233.2 313.293 233.484 314.649 233.484C315.981 233.484 317.141 233.188 318.127 232.596C319.139 232.004 319.866 231.141 320.31 230.006L321.013 232.448C320.545 233.607 319.718 234.532 318.534 235.223C317.35 235.889 315.858 236.222 314.057 236.222Z" fill="#686767"/>
<path d="M151.688 370.296C149.715 370.296 147.877 369.963 146.175 369.297C144.498 368.631 143.042 367.706 141.809 366.522C140.576 365.313 139.614 363.907 138.923 362.304C138.232 360.701 137.887 358.949 137.887 357.05C137.887 355.151 138.232 353.399 138.923 351.796C139.614 350.193 140.576 348.799 141.809 347.615C143.042 346.406 144.498 345.469 146.175 344.803C147.852 344.137 149.69 343.804 151.688 343.804C153.661 343.804 155.474 344.137 157.127 344.803C158.804 345.444 160.26 346.369 161.493 347.578C162.751 348.762 163.713 350.156 164.379 351.759C165.07 353.362 165.415 355.126 165.415 357.05C165.415 358.974 165.07 360.738 164.379 362.341C163.713 363.944 162.751 365.35 161.493 366.559C160.26 367.743 158.804 368.668 157.127 369.334C155.474 369.975 153.661 370.296 151.688 370.296ZM151.688 367.003C153.119 367.003 154.438 366.756 155.647 366.263C156.88 365.77 157.941 365.079 158.829 364.191C159.742 363.278 160.445 362.218 160.938 361.009C161.456 359.8 161.715 358.481 161.715 357.05C161.715 355.619 161.456 354.3 160.938 353.091C160.445 351.882 159.742 350.834 158.829 349.946C157.941 349.033 156.88 348.33 155.647 347.837C154.438 347.344 153.119 347.097 151.688 347.097C150.233 347.097 148.888 347.344 147.655 347.837C146.446 348.33 145.386 349.033 144.473 349.946C143.56 350.834 142.845 351.882 142.327 353.091C141.834 354.3 141.587 355.619 141.587 357.05C141.587 358.481 141.834 359.8 142.327 361.009C142.845 362.218 143.56 363.278 144.473 364.191C145.386 365.079 146.446 365.77 147.655 366.263C148.888 366.756 150.233 367.003 151.688 367.003ZM179.869 370.296C178.241 370.296 176.798 370.037 175.54 369.519C174.307 369.001 173.246 368.236 172.358 367.225C171.47 366.189 170.792 364.894 170.323 363.34C169.879 361.761 169.657 359.911 169.657 357.79C169.657 356.113 169.805 354.608 170.101 353.276C170.397 351.944 170.817 350.76 171.359 349.724C171.927 348.688 172.617 347.788 173.431 347.023C174.27 346.258 175.207 345.629 176.243 345.136C177.304 344.618 178.463 344.223 179.721 343.952L188.675 341.954L189.193 345.247L180.942 347.023C180.449 347.122 179.857 347.27 179.166 347.467C178.476 347.664 177.773 347.973 177.057 348.392C176.342 348.787 175.676 349.342 175.059 350.057C174.443 350.772 173.949 351.71 173.579 352.869C173.209 354.004 173.024 355.41 173.024 357.087C173.024 357.556 173.037 357.913 173.061 358.16C173.086 358.407 173.111 358.653 173.135 358.9C173.185 359.147 173.222 359.517 173.246 360.01L171.766 358.493C172.161 357.136 172.79 355.952 173.653 354.941C174.517 353.93 175.553 353.153 176.761 352.61C177.995 352.043 179.339 351.759 180.794 351.759C182.62 351.759 184.235 352.154 185.641 352.943C187.072 353.732 188.194 354.818 189.008 356.199C189.822 357.58 190.229 359.159 190.229 360.935C190.229 362.736 189.798 364.351 188.934 365.782C188.096 367.188 186.899 368.298 185.345 369.112C183.791 369.901 181.966 370.296 179.869 370.296ZM180.202 367.336C181.46 367.336 182.57 367.065 183.532 366.522C184.494 365.955 185.247 365.202 185.789 364.265C186.332 363.303 186.603 362.23 186.603 361.046C186.603 359.862 186.332 358.814 185.789 357.901C185.247 356.988 184.494 356.273 183.532 355.755C182.57 355.212 181.436 354.941 180.128 354.941C178.895 354.941 177.785 355.2 176.798 355.718C175.812 356.211 175.047 356.914 174.504 357.827C173.962 358.715 173.69 359.751 173.69 360.935C173.69 362.119 173.962 363.204 174.504 364.191C175.072 365.153 175.836 365.918 176.798 366.485C177.785 367.052 178.92 367.336 180.202 367.336ZM208.326 366.892L207.512 367.817V350.39H211.064V367.817L210.176 366.892H220.536L219.685 367.817V350.39H223.237V370H195.302V350.39H198.854V367.817L198.003 366.892H208.326ZM222.793 374.181V369.075L223.644 370H219.5V366.892H226.123V374.181H222.793ZM238.866 370.222C236.77 370.222 234.92 369.79 233.316 368.927C231.738 368.064 230.504 366.88 229.616 365.375C228.753 363.87 228.321 362.144 228.321 360.195C228.321 358.246 228.741 356.52 229.579 355.015C230.443 353.51 231.614 352.339 233.094 351.5C234.599 350.637 236.289 350.205 238.163 350.205C240.063 350.205 241.74 350.624 243.195 351.463C244.651 352.302 245.785 353.486 246.599 355.015C247.438 356.52 247.857 358.283 247.857 360.306C247.857 360.454 247.845 360.627 247.82 360.824C247.82 361.021 247.808 361.206 247.783 361.379H231.096V358.826H245.933L244.49 359.714C244.515 358.456 244.256 357.334 243.713 356.347C243.171 355.36 242.418 354.596 241.456 354.053C240.519 353.486 239.421 353.202 238.163 353.202C236.93 353.202 235.832 353.486 234.87 354.053C233.908 354.596 233.156 355.373 232.613 356.384C232.071 357.371 231.799 358.505 231.799 359.788V360.38C231.799 361.687 232.095 362.859 232.687 363.895C233.304 364.906 234.155 365.696 235.24 366.263C236.326 366.83 237.571 367.114 238.977 367.114C240.137 367.114 241.185 366.917 242.122 366.522C243.084 366.127 243.923 365.535 244.638 364.746L246.599 367.04C245.711 368.076 244.601 368.865 243.269 369.408C241.962 369.951 240.494 370.222 238.866 370.222ZM261.915 370.222C259.917 370.222 258.128 369.79 256.55 368.927C254.996 368.064 253.775 366.88 252.887 365.375C251.999 363.87 251.555 362.144 251.555 360.195C251.555 358.246 251.999 356.52 252.887 355.015C253.775 353.51 254.996 352.339 256.55 351.5C258.128 350.637 259.917 350.205 261.915 350.205C263.691 350.205 265.269 350.563 266.651 351.278C268.057 351.969 269.142 353.005 269.907 354.386L267.206 356.125C266.564 355.163 265.775 354.46 264.838 354.016C263.925 353.547 262.938 353.313 261.878 353.313C260.595 353.313 259.448 353.597 258.437 354.164C257.425 354.731 256.624 355.533 256.032 356.569C255.44 357.58 255.144 358.789 255.144 360.195C255.144 361.601 255.44 362.822 256.032 363.858C256.624 364.894 257.425 365.696 258.437 366.263C259.448 366.83 260.595 367.114 261.878 367.114C262.938 367.114 263.925 366.892 264.838 366.448C265.775 365.979 266.564 365.264 267.206 364.302L269.907 366.004C269.142 367.361 268.057 368.409 266.651 369.149C265.269 369.864 263.691 370.222 261.915 370.222ZM278.138 370V352.573L279.026 353.498H270.96V350.39H288.868V353.498H280.839L281.69 352.573V370H278.138ZM292.5 370V350.39H301.602C303.896 350.39 305.696 350.834 307.004 351.722C308.336 352.585 309.002 353.819 309.002 355.422C309.002 357.025 308.373 358.271 307.115 359.159C305.881 360.022 304.241 360.454 302.194 360.454L302.749 359.492C305.092 359.492 306.831 359.924 307.966 360.787C309.1 361.65 309.668 362.921 309.668 364.598C309.668 366.3 309.026 367.632 307.744 368.594C306.486 369.531 304.549 370 301.935 370H292.5ZM295.978 367.262H301.676C303.156 367.262 304.266 367.04 305.006 366.596C305.746 366.127 306.116 365.387 306.116 364.376C306.116 363.34 305.77 362.588 305.08 362.119C304.414 361.626 303.353 361.379 301.898 361.379H295.978V367.262ZM295.978 358.826H301.306C302.662 358.826 303.686 358.579 304.377 358.086C305.092 357.568 305.45 356.853 305.45 355.94C305.45 355.003 305.092 354.3 304.377 353.831C303.686 353.362 302.662 353.128 301.306 353.128H295.978V358.826ZM323.626 370.222C321.653 370.222 319.901 369.79 318.372 368.927C316.843 368.064 315.634 366.88 314.746 365.375C313.858 363.846 313.414 362.119 313.414 360.195C313.414 358.246 313.858 356.52 314.746 355.015C315.634 353.51 316.843 352.339 318.372 351.5C319.901 350.637 321.653 350.205 323.626 350.205C325.575 350.205 327.314 350.637 328.843 351.5C330.397 352.339 331.606 353.51 332.469 355.015C333.357 356.495 333.801 358.222 333.801 360.195C333.801 362.144 333.357 363.87 332.469 365.375C331.606 366.88 330.397 368.064 328.843 368.927C327.314 369.79 325.575 370.222 323.626 370.222ZM323.626 367.114C324.884 367.114 326.006 366.83 326.993 366.263C328.004 365.696 328.794 364.894 329.361 363.858C329.928 362.797 330.212 361.576 330.212 360.195C330.212 358.789 329.928 357.58 329.361 356.569C328.794 355.533 328.004 354.731 326.993 354.164C326.006 353.597 324.884 353.313 323.626 353.313C322.368 353.313 321.246 353.597 320.259 354.164C319.272 354.731 318.483 355.533 317.891 356.569C317.299 357.58 317.003 358.789 317.003 360.195C317.003 361.576 317.299 362.797 317.891 363.858C318.483 364.894 319.272 365.696 320.259 366.263C321.246 366.83 322.368 367.114 323.626 367.114Z" fill="#686767"/>
<path d="M140.033 511V485.1H143.696V505.08L159.014 485.1H162.418V511H158.792V491.057L143.437 511H140.033ZM169.901 511V491.39H173.453V499.715H184.627V491.39H188.179V511H184.627V502.786H173.453V511H169.901ZM203.633 511.222C201.635 511.222 199.846 510.79 198.268 509.927C196.714 509.064 195.493 507.88 194.605 506.375C193.717 504.87 193.273 503.144 193.273 501.195C193.273 499.246 193.717 497.52 194.605 496.015C195.493 494.51 196.714 493.339 198.268 492.5C199.846 491.637 201.635 491.205 203.633 491.205C205.409 491.205 206.987 491.563 208.369 492.278C209.775 492.969 210.86 494.005 211.625 495.386L208.924 497.125C208.282 496.163 207.493 495.46 206.556 495.016C205.643 494.547 204.656 494.313 203.596 494.313C202.313 494.313 201.166 494.597 200.155 495.164C199.143 495.731 198.342 496.533 197.75 497.569C197.158 498.58 196.862 499.789 196.862 501.195C196.862 502.601 197.158 503.822 197.75 504.858C198.342 505.894 199.143 506.696 200.155 507.263C201.166 507.83 202.313 508.114 203.596 508.114C204.656 508.114 205.643 507.892 206.556 507.448C207.493 506.979 208.282 506.264 208.924 505.302L211.625 507.004C210.86 508.361 209.775 509.409 208.369 510.149C206.987 510.864 205.409 511.222 203.633 511.222ZM219.855 511V493.573L220.743 494.498H212.677V491.39H230.585V494.498H222.556L223.407 493.573V511H219.855ZM234.217 511V491.39H237.769V505.672L249.794 491.39H253.013V511H249.461V496.718L237.473 511H234.217ZM263.793 511V493.573L264.681 494.498H256.615V491.39H274.523V494.498H266.494L267.345 493.573V511H263.793ZM279.154 518.4C278.217 518.4 277.304 518.24 276.416 517.919C275.528 517.623 274.763 517.179 274.122 516.587L275.639 513.923C276.132 514.392 276.675 514.749 277.267 514.996C277.859 515.243 278.488 515.366 279.154 515.366C280.017 515.366 280.733 515.144 281.3 514.7C281.867 514.256 282.398 513.467 282.891 512.332L284.112 509.631L284.482 509.187L292.178 491.39H295.656L286.147 512.961C285.58 514.342 284.938 515.428 284.223 516.217C283.532 517.006 282.768 517.561 281.929 517.882C281.09 518.227 280.165 518.4 279.154 518.4ZM283.816 511.629L274.862 491.39H278.562L286.184 508.854L283.816 511.629ZM299.293 511V491.39H302.845V507.892H313.575V491.39H317.127V511H299.293ZM316.868 515.551V510.815L317.756 511H313.575V507.892H320.235V515.551H316.868ZM324.838 511V491.39H328.39V505.672L340.415 491.39H343.634V511H340.082V496.718L328.094 511H324.838ZM350.529 511V491.39H354.081V505.672L366.106 491.39H369.325V511H365.773V496.718L353.785 511H350.529Z" fill="#686767"/>
<path d="M140.033 642V616.1H143.696V636.08L159.014 616.1H162.418V642H158.792V622.057L143.437 642H140.033ZM169.901 642V622.39H173.453V630.715H184.627V622.39H188.179V642H184.627V633.786H173.453V642H169.901ZM206.778 642.296C206.753 642.296 206.667 642.296 206.519 642.296C206.395 642.296 206.272 642.296 206.149 642.296C206.025 642.296 205.951 642.296 205.927 642.296C201.906 642.247 198.786 641.359 196.566 639.632C194.346 637.881 193.236 635.389 193.236 632.158C193.236 628.951 194.346 626.497 196.566 624.795C198.81 623.068 201.968 622.193 206.038 622.168C206.087 622.168 206.161 622.168 206.26 622.168C206.383 622.168 206.494 622.168 206.593 622.168C206.716 622.168 206.79 622.168 206.815 622.168C210.934 622.168 214.128 623.031 216.398 624.758C218.692 626.485 219.839 628.951 219.839 632.158C219.839 635.414 218.692 637.918 216.398 639.669C214.104 641.42 210.897 642.296 206.778 642.296ZM206.704 639.188C208.85 639.188 210.626 638.917 212.032 638.374C213.462 637.831 214.535 637.042 215.251 636.006C215.966 634.97 216.324 633.687 216.324 632.158C216.324 630.653 215.966 629.395 215.251 628.384C214.535 627.373 213.462 626.608 212.032 626.09C210.626 625.572 208.85 625.313 206.704 625.313C206.654 625.313 206.556 625.313 206.408 625.313C206.26 625.313 206.173 625.313 206.149 625.313C204.052 625.313 202.301 625.584 200.895 626.127C199.513 626.645 198.477 627.41 197.787 628.421C197.096 629.432 196.751 630.678 196.751 632.158C196.751 633.663 197.096 634.933 197.787 635.969C198.502 637.005 199.55 637.794 200.932 638.337C202.338 638.88 204.077 639.163 206.149 639.188C206.198 639.188 206.284 639.188 206.408 639.188C206.556 639.188 206.654 639.188 206.704 639.188ZM204.78 649.178V614.546H208.258V649.178H204.78ZM233.258 642.222C231.285 642.222 229.533 641.79 228.004 640.927C226.475 640.064 225.266 638.88 224.378 637.375C223.49 635.846 223.046 634.119 223.046 632.195C223.046 630.246 223.49 628.52 224.378 627.015C225.266 625.51 226.475 624.339 228.004 623.5C229.533 622.637 231.285 622.205 233.258 622.205C235.207 622.205 236.946 622.637 238.475 623.5C240.029 624.339 241.238 625.51 242.101 627.015C242.989 628.495 243.433 630.222 243.433 632.195C243.433 634.144 242.989 635.87 242.101 637.375C241.238 638.88 240.029 640.064 238.475 640.927C236.946 641.79 235.207 642.222 233.258 642.222ZM233.258 639.114C234.516 639.114 235.638 638.83 236.625 638.263C237.636 637.696 238.426 636.894 238.993 635.858C239.56 634.797 239.844 633.576 239.844 632.195C239.844 630.789 239.56 629.58 238.993 628.569C238.426 627.533 237.636 626.731 236.625 626.164C235.638 625.597 234.516 625.313 233.258 625.313C232 625.313 230.878 625.597 229.891 626.164C228.904 626.731 228.115 627.533 227.523 628.569C226.931 629.58 226.635 630.789 226.635 632.195C226.635 633.576 226.931 634.797 227.523 635.858C228.115 636.894 228.904 637.696 229.891 638.263C230.878 638.83 232 639.114 233.258 639.114ZM258.959 642.222C257.331 642.222 255.839 641.852 254.482 641.112C253.15 640.347 252.077 639.225 251.263 637.745C250.474 636.265 250.079 634.415 250.079 632.195C250.079 629.975 250.461 628.125 251.226 626.645C252.015 625.165 253.076 624.055 254.408 623.315C255.765 622.575 257.282 622.205 258.959 622.205C260.883 622.205 262.585 622.624 264.065 623.463C265.545 624.302 266.717 625.473 267.58 626.978C268.443 628.458 268.875 630.197 268.875 632.195C268.875 634.193 268.443 635.944 267.58 637.449C266.717 638.954 265.545 640.125 264.065 640.964C262.585 641.803 260.883 642.222 258.959 642.222ZM248.562 649.178V622.39H251.966V627.681L251.744 632.232L252.114 636.783V649.178H248.562ZM258.663 639.114C259.921 639.114 261.043 638.83 262.03 638.263C263.041 637.696 263.831 636.894 264.398 635.858C264.99 634.797 265.286 633.576 265.286 632.195C265.286 630.789 264.99 629.58 264.398 628.569C263.831 627.533 263.041 626.731 262.03 626.164C261.043 625.597 259.921 625.313 258.663 625.313C257.43 625.313 256.307 625.597 255.296 626.164C254.309 626.731 253.52 627.533 252.928 628.569C252.361 629.58 252.077 630.789 252.077 632.195C252.077 633.576 252.361 634.797 252.928 635.858C253.52 636.894 254.309 637.696 255.296 638.263C256.307 638.83 257.43 639.114 258.663 639.114ZM274.036 642V622.39H277.699L286.135 636.894H284.655L293.313 622.39H296.643V642H293.424V626.386L294.016 626.719L286.098 639.78H284.544L276.589 626.46L277.292 626.312V642H274.036ZM315.581 642V637.856L315.396 637.079V630.012C315.396 628.507 314.952 627.348 314.064 626.534C313.201 625.695 311.894 625.276 310.142 625.276C308.983 625.276 307.848 625.473 306.738 625.868C305.628 626.238 304.691 626.744 303.926 627.385L302.446 624.721C303.458 623.907 304.666 623.29 306.072 622.871C307.503 622.427 308.995 622.205 310.549 622.205C313.238 622.205 315.31 622.859 316.765 624.166C318.221 625.473 318.948 627.471 318.948 630.16V642H315.581ZM309.143 642.222C307.688 642.222 306.405 641.975 305.295 641.482C304.21 640.989 303.371 640.31 302.779 639.447C302.187 638.559 301.891 637.56 301.891 636.45C301.891 635.389 302.138 634.427 302.631 633.564C303.149 632.701 303.976 632.01 305.11 631.492C306.27 630.974 307.824 630.715 309.772 630.715H315.988V633.268H309.92C308.144 633.268 306.948 633.564 306.331 634.156C305.715 634.748 305.406 635.463 305.406 636.302C305.406 637.264 305.789 638.041 306.553 638.633C307.318 639.2 308.379 639.484 309.735 639.484C311.067 639.484 312.227 639.188 313.213 638.596C314.225 638.004 314.952 637.141 315.396 636.006L316.099 638.448C315.631 639.607 314.804 640.532 313.62 641.223C312.436 641.889 310.944 642.222 309.143 642.222ZM325.344 642V622.39H328.896V638.892H339.626V622.39H343.178V642H325.344ZM342.919 646.551V641.815L343.807 642H339.626V638.892H346.286V646.551H342.919ZM350.89 642V622.39H354.442V636.672L366.467 622.39H369.686V642H366.134V627.718L354.146 642H350.89ZM384.98 642.222C383.006 642.222 381.255 641.79 379.726 640.927C378.196 640.064 376.988 638.88 376.1 637.375C375.212 635.846 374.768 634.119 374.768 632.195C374.768 630.246 375.212 628.52 376.1 627.015C376.988 625.51 378.196 624.339 379.726 623.5C381.255 622.637 383.006 622.205 384.98 622.205C386.928 622.205 388.667 622.637 390.197 623.5C391.751 624.339 392.959 625.51 393.823 627.015C394.711 628.495 395.155 630.222 395.155 632.195C395.155 634.144 394.711 635.87 393.823 637.375C392.959 638.88 391.751 640.064 390.197 640.927C388.667 641.79 386.928 642.222 384.98 642.222ZM384.98 639.114C386.238 639.114 387.36 638.83 388.347 638.263C389.358 637.696 390.147 636.894 390.715 635.858C391.282 634.797 391.566 633.576 391.566 632.195C391.566 630.789 391.282 629.58 390.715 628.569C390.147 627.533 389.358 626.731 388.347 626.164C387.36 625.597 386.238 625.313 384.98 625.313C383.722 625.313 382.599 625.597 381.613 626.164C380.626 626.731 379.837 627.533 379.245 628.569C378.653 629.58 378.357 630.789 378.357 632.195C378.357 633.576 378.653 634.797 379.245 635.858C379.837 636.894 380.626 637.696 381.613 638.263C382.599 638.83 383.722 639.114 384.98 639.114ZM400.284 642V622.39H403.836V630.715H415.01V622.39H418.562V642H415.01V633.786H403.836V642H400.284ZM425.468 642V622.39H429.02V630.715H440.194V622.39H443.746V642H440.194V633.786H429.02V642H425.468ZM450.653 642V622.39H454.205V636.672L466.23 622.39H469.449V642H465.897V627.718L453.909 642H450.653ZM494.827 642.222C492.829 642.222 491.041 641.79 489.462 640.927C487.908 640.064 486.687 638.88 485.799 637.375C484.911 635.87 484.467 634.144 484.467 632.195C484.467 630.246 484.911 628.52 485.799 627.015C486.687 625.51 487.908 624.339 489.462 623.5C491.041 622.637 492.829 622.205 494.827 622.205C496.603 622.205 498.182 622.563 499.563 623.278C500.969 623.969 502.054 625.005 502.819 626.386L500.118 628.125C499.477 627.163 498.687 626.46 497.75 626.016C496.837 625.547 495.851 625.313 494.79 625.313C493.507 625.313 492.36 625.597 491.349 626.164C490.338 626.731 489.536 627.533 488.944 628.569C488.352 629.58 488.056 630.789 488.056 632.195C488.056 633.601 488.352 634.822 488.944 635.858C489.536 636.894 490.338 637.696 491.349 638.263C492.36 638.83 493.507 639.114 494.79 639.114C495.851 639.114 496.837 638.892 497.75 638.448C498.687 637.979 499.477 637.264 500.118 636.302L502.819 638.004C502.054 639.361 500.969 640.409 499.563 641.149C498.182 641.864 496.603 642.222 494.827 642.222ZM511.05 642V624.573L511.938 625.498H503.872V622.39H521.78V625.498H513.751L514.602 624.573V642H511.05ZM535.809 642.222C534.181 642.222 532.688 641.852 531.332 641.112C530 640.347 528.927 639.225 528.113 637.745C527.323 636.265 526.929 634.415 526.929 632.195C526.929 629.975 527.311 628.125 528.076 626.645C528.865 625.165 529.926 624.055 531.258 623.315C532.614 622.575 534.131 622.205 535.809 622.205C537.733 622.205 539.435 622.624 540.915 623.463C542.395 624.302 543.566 625.473 544.43 626.978C545.293 628.458 545.725 630.197 545.725 632.195C545.725 634.193 545.293 635.944 544.43 637.449C543.566 638.954 542.395 640.125 540.915 640.964C539.435 641.803 537.733 642.222 535.809 642.222ZM525.412 649.178V622.39H528.816V627.681L528.594 632.232L528.964 636.783V649.178H525.412ZM535.513 639.114C536.771 639.114 537.893 638.83 538.88 638.263C539.891 637.696 540.68 636.894 541.248 635.858C541.84 634.797 542.136 633.576 542.136 632.195C542.136 630.789 541.84 629.58 541.248 628.569C540.68 627.533 539.891 626.731 538.88 626.164C537.893 625.597 536.771 625.313 535.513 625.313C534.279 625.313 533.157 625.597 532.146 626.164C531.159 626.731 530.37 627.533 529.778 628.569C529.21 629.58 528.927 630.789 528.927 632.195C528.927 633.576 529.21 634.797 529.778 635.858C530.37 636.894 531.159 637.696 532.146 638.263C533.157 638.83 534.279 639.114 535.513 639.114ZM562.73 642V637.856L562.545 637.079V630.012C562.545 628.507 562.101 627.348 561.213 626.534C560.349 625.695 559.042 625.276 557.291 625.276C556.131 625.276 554.997 625.473 553.887 625.868C552.777 626.238 551.839 626.744 551.075 627.385L549.595 624.721C550.606 623.907 551.815 623.29 553.221 622.871C554.651 622.427 556.144 622.205 557.698 622.205C560.386 622.205 562.458 622.859 563.914 624.166C565.369 625.473 566.097 627.471 566.097 630.16V642H562.73ZM556.292 642.222C554.836 642.222 553.554 641.975 552.444 641.482C551.358 640.989 550.52 640.31 549.928 639.447C549.336 638.559 549.04 637.56 549.04 636.45C549.04 635.389 549.286 634.427 549.78 633.564C550.298 632.701 551.124 632.01 552.259 631.492C553.418 630.974 554.972 630.715 556.921 630.715H563.137V633.268H557.069C555.293 633.268 554.096 633.564 553.48 634.156C552.863 634.748 552.555 635.463 552.555 636.302C552.555 637.264 552.937 638.041 553.702 638.633C554.466 639.2 555.527 639.484 556.884 639.484C558.216 639.484 559.375 639.188 560.362 638.596C561.373 638.004 562.101 637.141 562.545 636.006L563.248 638.448C562.779 639.607 561.953 640.532 560.769 641.223C559.585 641.889 558.092 642.222 556.292 642.222ZM572.493 642V622.39H576.045V630.715H587.219V622.39H590.771V642H587.219V633.786H576.045V642H572.493ZM597.677 642V622.39H601.229V636.672L613.254 622.39H616.473V642H612.921V627.718L600.933 642H597.677ZM623.368 642V622.39H626.92V638.892H637.65V622.39H641.202V642H623.368ZM640.943 646.551V641.815L641.831 642H637.65V638.892H644.31V646.551H640.943ZM648.914 642V622.39H652.466V636.672L664.491 622.39H667.71V642H664.158V627.718L652.17 642H648.914Z" fill="#686767"/>
<path d="M108.145 55.0723C108.145 84.4141 84.7505 108.145 55.9605 108.145C27.1706 108.145 3.77649 84.4141 3.77649 55.0723C3.77649 25.7305 27.1706 2 55.9605 2C84.7505 2 108.145 25.7305 108.145 55.0723Z" stroke="#686767" stroke-width="4"/>
<path d="M81.8018 219.587C81.8018 234.315 70.0638 246.198 55.6526 246.198C41.2413 246.198 29.5034 234.315 29.5034 219.587C29.5034 204.86 41.2413 192.977 55.6526 192.977C70.0638 192.977 81.8018 204.86 81.8018 219.587Z" stroke="#686767" stroke-width="4"/>
<line x1="54.8706" y1="110.147" x2="54.8706" y2="193.412" stroke="#686767" stroke-width="4"/>
<path d="M82.2023 354.701C82.2023 369.429 70.4643 381.312 56.0531 381.312C41.6418 381.312 29.9039 369.429 29.9039 354.701C29.9039 339.974 41.6418 328.091 56.0531 328.091C70.4643 328.091 82.2023 339.974 82.2023 354.701Z" stroke="#686767" stroke-width="4"/>
<line x1="55.2711" y1="245.261" x2="55.2711" y2="328.526" stroke="#686767" stroke-width="4"/>
<path d="M83.6709 491.283C83.6709 506.011 71.933 517.894 57.5217 517.894C43.1105 517.894 31.3726 506.011 31.3726 491.283C31.3726 476.556 43.1105 464.673 57.5217 464.673C71.933 464.673 83.6709 476.556 83.6709 491.283Z" stroke="#686767" stroke-width="4"/>
<path d="M85.1395 623.405C85.1395 638.132 73.4016 650.015 58.9904 650.015C44.5791 650.015 32.8412 638.132 32.8412 623.405C32.8412 608.677 44.5791 596.794 58.9904 596.794C73.4016 596.794 85.1395 608.677 85.1395 623.405Z" stroke="#686767" stroke-width="4"/>
<line x1="56.7397" y1="381.843" x2="56.7397" y2="465.108" stroke="#686767" stroke-width="4"/>
<line x1="57.8079" y1="515.488" x2="57.8079" y2="598.754" stroke="#686767" stroke-width="4"/>
<path d="M140.698 80V42.2H149.392V66.824L167.428 42.2H175.636V80H166.996V55.43L148.96 80H140.698ZM210.968 42.2H219.716V80H210.968V64.502H193.796V80H185.048V42.2H193.796V57.104H210.968V42.2ZM273.952 60.992C273.952 70.928 266.986 76.922 254.188 77.57V81.674H246.142V77.516C233.344 76.76 226.324 70.874 226.324 60.992C226.324 51.056 233.344 45.224 246.142 44.468V40.58H254.188V44.414C266.932 45.17 273.952 51.11 273.952 60.992ZM254.188 70.712C261.802 70.01 265.528 66.824 265.528 60.938C265.528 55.106 261.694 51.974 254.188 51.326V70.712ZM234.802 60.992C234.802 66.824 238.852 69.956 246.142 70.712V51.326C238.474 52.028 234.802 55.106 234.802 60.992ZM298.533 80.648C286.599 80.648 277.851 72.332 277.851 61.1C277.851 49.868 286.599 41.552 298.533 41.552C310.413 41.552 319.215 49.814 319.215 61.1C319.215 72.386 310.413 80.648 298.533 80.648ZM298.533 73.196C305.283 73.196 310.359 68.282 310.359 61.1C310.359 53.918 305.283 49.004 298.533 49.004C291.783 49.004 286.707 53.918 286.707 61.1C286.707 68.282 291.783 73.196 298.533 73.196ZM342.316 42.2C352.414 42.2 358.732 47.438 358.732 55.916C358.732 64.34 352.414 69.578 342.316 69.578H334.702V80H325.954V42.2H342.316ZM341.83 62.45C347.176 62.45 349.876 60.02 349.876 55.916C349.876 51.758 347.176 49.328 341.83 49.328H334.702V62.45H341.83ZM407.109 80H398.901L398.847 57.374L387.723 76.004H383.835L372.711 57.806V80H364.503V42.2H371.739L385.887 65.69L399.819 42.2H407.055L407.109 80ZM445.443 80L442.095 71.9H424.545L421.197 80H412.233L429.081 42.2H437.721L454.623 80H445.443ZM427.353 65.258H439.341L433.347 50.786L427.353 65.258ZM493.872 72.872H499.272V87.992H491.226V80H459.636V42.2H468.33V72.872H485.178V42.2H493.872V72.872ZM505.04 80V42.2H513.734V66.824L531.77 42.2H539.978V80H531.338V55.43L513.302 80H505.04ZM563.267 42.2H579.575V80H570.935V69.956H562.943L556.247 80H547.013L554.897 68.606C549.821 66.554 546.959 62.234 546.959 56.294C546.959 47.492 553.277 42.2 563.267 42.2ZM563.483 49.328C558.515 49.328 555.815 51.65 555.815 56.186C555.815 60.56 558.353 63.044 563.267 63.044H570.935V49.328H563.483Z" fill="#686767"/>
</svg>
