<svg width="248" height="248" viewBox="0 0 248 248" fill="none" xmlns="http://www.w3.org/2000/svg">
<path d="M125.518 120.187C127.581 120.703 129.257 121.004 130.889 121.563C147.39 127.149 162.086 136.129 176.051 146.356C177.684 147.56 179.231 149.063 180.262 150.739C180.821 151.642 180.735 153.446 180.176 154.478C179.747 155.251 178.071 155.81 177.125 155.638C175.321 155.337 173.473 154.693 171.84 153.79C161.054 147.86 150.312 141.887 139.612 135.829C135.616 133.551 131.663 131.145 127.71 128.782C126.378 128.008 125.088 127.149 123.885 126.246C122.51 125.258 121.694 123.754 122.596 122.25C123.198 121.262 123.627 120.187 125.518 120.187Z" fill="#2E6A72"/>
<path d="M61.5342 181.033C61.8779 178.97 62.1357 176.564 62.6514 174.243C64.7139 165.091 66.7765 155.938 68.925 146.828C69.3977 144.852 70.2141 142.918 71.1595 141.156C72.4056 138.793 74.1674 137.977 76.101 138.363C78.0347 138.75 79.2379 140.297 79.2808 143.004C79.3238 144.852 79.2808 146.828 78.8511 148.59C75.9292 160.149 72.9212 171.708 69.8704 183.224C69.5266 184.513 68.925 185.845 68.0656 186.834C65.9601 189.326 62.6514 188.553 61.835 185.373C61.5342 184.127 61.6631 182.709 61.5342 181.033Z" fill="#2E6A72"/>
<path d="M176.738 60.2865C178.757 60.4584 180.777 60.8881 182.754 61.4037C184.515 61.8764 185.761 63.0796 185.933 65.0132C186.062 66.6461 184.429 68.4079 182.281 68.6657C179.402 69.0095 176.48 69.3103 173.601 69.1814C164.921 68.7946 156.198 68.236 147.518 67.6344C144.639 67.4196 141.76 67.0328 138.881 66.5602C137.893 66.3883 136.861 66.0445 136.088 65.4859C133.896 63.982 134.068 61.2319 136.432 60.1576C137.764 59.556 139.397 59.2982 140.858 59.2982C145.67 59.0834 169.605 59.7279 176.738 60.2865Z" fill="#2E6A72"/>
</svg>
