<svg width="338" height="311" viewBox="0 0 338 311" fill="none" xmlns="http://www.w3.org/2000/svg">
<path d="M199.218 78.4553C198.339 84.1921 197.717 89.0689 196.821 93.8882C195.334 102.068 193.502 110.08 188.653 117.136C183.726 124.29 176.927 127.567 168.546 126.134C163.401 125.246 158.511 122.964 153.583 121.131C151.66 120.404 149.911 119.123 147.217 117.626C148.667 121.966 149.86 125.358 150.91 128.795C153.511 137.185 156.457 145.475 158.479 153.991C161.31 165.646 156.158 173.419 144.338 175.853C139.703 176.804 134.789 176.631 129.988 176.919C128.544 176.997 127.105 176.866 125.38 176.828C130.583 183.345 135.62 189.466 140.379 195.737C151.474 210.381 142.132 221.16 129.736 224.254C126.421 225.082 122.836 225.111 119.374 225.185C117.057 225.156 115.015 223.909 115.075 221.352C115.104 219.035 117.078 218.154 119.237 217.845C121.364 217.51 123.536 217.319 125.577 216.756C127.962 216.095 130.374 215.401 132.588 214.285C138.808 211.134 140.272 206.872 136.784 200.809C134.331 196.525 131.235 192.583 128.231 188.659C125.436 185.008 122.447 181.468 119.457 177.928C117.939 176.087 116.473 174.181 117.432 171.697C118.525 168.842 121.212 168.739 123.691 168.63C126.847 168.473 129.998 168.791 133.133 168.458C137.094 168.089 141.074 167.629 144.877 166.656C150.031 165.318 151.816 162.799 151.174 157.504C150.56 152.445 149.639 147.301 148.211 142.395C145.1 131.899 141.651 121.561 138.169 111.198C137.351 108.742 137.133 106.602 139.156 104.855C141.068 103.181 143.16 103.829 145.163 104.991C148.725 107.071 152.249 109.333 155.908 111.223C159.123 112.868 162.456 114.5 165.896 115.526C175.084 118.289 180.721 115.74 185.297 107.351C188.751 101.05 190.875 94.279 192.138 87.252C193.066 82.1917 193.661 77.0809 194.381 72.015C194.753 69.3323 195.144 66.5585 198.349 65.8024C201.385 65.1252 203.281 67.1601 205.034 69.2412C205.76 70.1359 206.35 71.1355 206.966 72.1023C208.172 74.0687 209.521 75.9888 210.533 78.0667C218.156 93.4682 231.364 97.3986 247.104 95.7865C250.005 95.4808 252.831 94.2644 255.664 93.3733C257.067 92.9441 258.391 92.0793 259.815 91.8257C260.829 91.6195 262.418 91.7621 262.909 92.4171C263.465 93.124 263.29 94.6865 263.073 95.631C262.568 97.6766 260.767 99.5456 259.04 100.516C255.613 102.425 251.931 104.186 248.141 105.009C239.755 106.868 231.331 106.092 223.03 103.819C215.955 101.879 210.8 97.3141 206.85 91.3644C204.321 87.4452 202.129 83.3684 199.218 78.4553Z" fill="#79A9AF"/>
</svg>
