<svg width="79" height="119" viewBox="0 0 79 119" fill="none" xmlns="http://www.w3.org/2000/svg">
<path d="M35.0911 77.1902C32.9519 90.025 28.8139 102.445 22.8281 113.997C22.4652 114.639 22.3243 115.384 22.4272 116.114C22.5301 116.845 22.8712 117.522 23.3974 118.039C23.9237 118.556 24.6058 118.885 25.3379 118.975C26.0701 119.065 26.8115 118.911 27.4471 118.536C61.8651 98.4562 76.9893 69.1337 78.8696 45.6593C80.5047 25.2112 66.6067 4.51776 45.7189 0.673524C40.585 -0.299211 35.307 -0.217542 30.2056 0.913649C25.1042 2.04484 20.286 4.2019 16.0436 7.25375C11.8013 10.3056 8.22337 14.1885 5.52734 18.6666C2.8313 23.1447 1.07339 28.1245 0.360466 33.3033C-0.352456 38.4821 -0.00550023 43.7518 1.38019 48.7923C2.76589 53.8329 5.16142 58.5389 8.42123 62.6245C11.681 66.7101 15.737 70.09 20.3428 72.5588C24.9487 75.0276 30.0081 76.5337 35.2137 76.9857L35.0911 77.1902Z" fill="#005C82"/>
</svg>
