<svg width="79" height="119" viewBox="0 0 79 119" fill="none" xmlns="http://www.w3.org/2000/svg">
<path d="M35.1098 77.1824C32.9539 90.0172 28.8187 102.439 22.8521 114.002C22.5072 114.646 22.3795 115.386 22.4881 116.109C22.5966 116.832 22.9355 117.501 23.4544 118.016C23.9733 118.531 24.6444 118.864 25.3678 118.967C26.0912 119.069 26.8282 118.935 27.4692 118.584C61.9133 98.4966 76.9902 69.164 78.8697 45.6815C80.5041 25.2264 66.6121 4.48486 45.7331 0.680202C40.5978 -0.298302 35.3172 -0.220257 30.2129 0.90958C25.1086 2.03942 20.2873 4.19741 16.0425 7.25223C11.7977 10.307 8.21801 14.1948 5.52153 18.6788C2.82504 23.1628 1.06807 28.1494 0.357548 33.3349C-0.352972 38.5204 -0.0021323 43.7965 1.38862 48.842C2.77938 53.8874 5.18097 58.5968 8.44729 62.6834C11.7136 66.7699 15.7763 70.1483 20.3881 72.6128C24.9999 75.0772 30.0644 76.5763 35.2732 77.0187L35.1098 77.1824Z" fill="#7B7977"/>
</svg>
