<svg width="78" height="118" viewBox="0 0 78 118" fill="none" xmlns="http://www.w3.org/2000/svg">
<path d="M34.4001 76.4961C32.2556 89.2242 28.1473 101.542 22.2219 113.011C21.8559 113.645 21.7095 114.382 21.8053 115.108C21.9011 115.834 22.2337 116.508 22.7517 117.025C23.2696 117.543 23.9439 117.876 24.6701 117.971C25.3963 118.067 26.1339 117.921 26.7684 117.555C60.9892 97.6341 76.009 68.544 77.8763 45.2151C79.4595 25.1319 65.6981 4.39967 44.9546 0.585902C39.8825 -0.311702 34.6814 -0.176997 29.6627 0.981927C24.644 2.14085 19.9109 4.30013 15.7469 7.33052C11.5829 10.3609 8.07371 14.2001 5.42938 18.618C2.78505 23.036 1.06002 27.9418 0.357603 33.0419C-0.344818 38.1419 -0.0101712 43.3312 1.34148 48.2989C2.69314 53.2666 5.03401 57.9106 8.22391 61.9527C11.4138 65.9949 15.3871 69.352 19.9058 71.823C24.4246 74.2941 29.3958 75.8283 34.5219 76.3338L34.4001 76.4961Z" fill="#F3AA1A"/>
</svg>
