<svg width="78" height="118" viewBox="0 0 78 118" fill="none" xmlns="http://www.w3.org/2000/svg">
<path d="M34.6468 76.5315C32.5471 89.2666 28.4609 101.589 22.5392 113.043C22.1985 113.683 22.0724 114.416 22.1796 115.133C22.2868 115.85 22.6216 116.514 23.1341 117.024C23.6466 117.535 24.3095 117.866 25.0241 117.967C25.7386 118.068 26.4666 117.935 27.0997 117.587C61.1223 97.6678 76.0148 68.5801 77.8713 45.2937C79.4857 25.0093 65.7636 4.4816 45.1402 0.668144C40.0712 -0.296802 34.86 -0.215748 29.8232 0.906384C24.7864 2.02852 20.0292 4.16829 15.8405 7.19571C11.6519 10.2231 8.11926 14.075 5.45735 18.5172C2.79544 22.9594 1.05981 27.8992 0.355911 33.0366C-0.347986 38.1739 -0.00545323 43.4015 1.3627 48.4016C2.73085 53.4018 5.09606 58.0702 8.31461 62.1231C11.5332 66.1759 15.5378 69.5287 20.0853 71.9778C24.6329 74.4268 29.6282 75.9209 34.7679 76.3692L34.6468 76.5315Z" fill="#3764E5"/>
</svg>
