<svg width="273" height="273" viewBox="0 0 273 273" fill="none" xmlns="http://www.w3.org/2000/svg">
<path d="M133.275 134.028C134.111 132.202 134.68 130.698 135.481 129.279C143.519 114.927 154.397 102.837 166.306 91.6405C167.705 90.3326 169.369 89.1566 171.103 88.4889C172.037 88.1264 173.697 88.5182 174.558 89.2151C175.202 89.7477 175.431 91.4 175.108 92.2479C174.517 93.8713 173.599 95.4752 172.479 96.835C165.109 105.822 157.707 114.762 150.232 123.648C147.427 126.964 144.51 130.218 141.633 133.479C140.684 134.582 139.663 135.63 138.618 136.591C137.463 137.697 135.925 138.195 134.685 137.097C133.872 136.367 132.949 135.783 133.275 134.028Z" fill="#FFD200"/>
<path d="M178.698 203.946C176.843 203.271 174.653 202.615 172.588 201.736C164.448 198.238 156.308 194.741 148.223 191.172C146.47 190.391 144.816 189.299 143.344 188.117C141.365 186.551 140.912 184.775 141.605 183.046C142.298 181.318 143.942 180.469 146.463 180.897C148.186 181.176 150.013 181.558 151.574 182.262C161.8 186.973 172.01 191.763 182.174 196.587C183.311 197.129 184.444 197.917 185.213 198.886C187.162 201.272 185.872 204.209 182.779 204.418C181.57 204.481 180.276 204.117 178.698 203.946Z" fill="#FFD200"/>
<path d="M86.523 76.1218C87.0317 74.2767 87.7798 72.4761 88.6002 70.7303C89.3436 69.1765 90.676 68.2277 92.5008 68.4024C94.0389 68.5651 95.3921 70.3855 95.26 72.4246C95.0814 75.1567 94.8554 77.9213 94.238 80.5717C92.3783 88.5628 90.3516 96.564 88.2924 104.518C87.5952 107.153 86.7384 109.759 85.8019 112.35C85.4715 113.238 84.974 114.136 84.3217 114.757C82.5467 116.532 80.0234 115.897 79.4347 113.517C79.1065 112.176 79.1495 110.616 79.4021 109.26C80.0347 104.755 84.7711 82.6471 86.523 76.1218Z" fill="#FFD200"/>
</svg>
