<svg width="109" height="166" viewBox="0 0 109 166" fill="none" xmlns="http://www.w3.org/2000/svg">
<path d="M48.4426 107.963C45.4681 125.759 39.7625 142.982 31.5301 159.015C31.0543 159.909 30.8781 160.934 31.0278 161.937C31.1776 162.94 31.6453 163.867 32.3612 164.581C33.0771 165.295 34.003 165.757 35.0011 165.899C35.9992 166.041 37.0162 165.855 37.9005 165.368C85.4247 137.516 106.227 96.8448 108.82 64.2851C111.075 35.9229 91.9078 7.16373 63.1002 1.88837C56.0146 0.531616 48.7288 0.63983 41.6862 2.20641C34.6435 3.77299 27.9914 6.76517 22.1346 11.0008C16.2778 15.2365 11.3388 20.6271 7.61831 26.8444C3.89784 33.0618 1.47366 39.9759 0.493326 47.1659C-0.487013 54.3559 -0.00294203 61.6715 1.91595 68.6673C3.83484 75.6631 7.14842 82.1929 11.6551 87.8591C16.1618 93.5254 21.7673 98.2096 28.1305 101.627C34.4936 105.044 41.4812 107.122 48.6681 107.736L48.4426 107.963Z" fill="#7B7977"/>
</svg>
