<svg width="317" height="370" viewBox="0 0 317 370" fill="none" xmlns="http://www.w3.org/2000/svg">
<path d="M169.623 118.299C168.26 124.478 167.236 129.74 165.919 134.92C163.72 143.714 161.158 152.302 155.381 159.634C149.512 167.068 141.883 170.151 132.865 167.996C127.331 166.665 122.172 163.835 116.94 161.491C114.9 160.563 113.087 159.046 110.262 157.225C111.532 162.05 112.589 165.825 113.488 169.64C115.722 178.953 118.338 188.182 119.934 197.591C122.186 210.473 116.028 218.564 102.996 220.373C97.8844 221.079 92.5504 220.541 87.3061 220.514C85.7292 220.496 84.1731 220.252 82.2994 220.088C87.4968 227.548 92.5434 234.565 97.2756 241.727C108.307 258.448 97.3771 269.512 83.6705 271.998C80.0048 272.664 76.1017 272.441 72.3301 272.275C69.8115 272.079 67.6779 270.578 67.9251 267.799C68.1209 265.281 70.3316 264.463 72.7026 264.28C75.04 264.067 77.4175 264.012 79.6779 263.545C82.3201 262.995 84.9927 262.411 87.4809 261.354C94.4723 258.368 96.3687 253.834 93.0033 246.99C90.6389 242.155 87.5509 237.645 84.5608 233.163C81.7792 228.992 78.7779 224.928 75.7765 220.865C74.2558 218.753 72.796 216.575 74.0154 213.941C75.408 210.912 78.3389 210.991 81.0436 211.049C84.4879 211.102 87.8937 211.671 91.3283 211.532C95.6646 211.412 100.028 211.194 104.234 210.405C109.937 209.316 112.058 206.701 111.736 200.895C111.427 195.346 110.79 189.685 109.586 184.245C106.946 172.604 103.927 161.111 100.874 149.588C100.159 146.858 100.074 144.514 102.399 142.757C104.598 141.071 106.828 141.925 108.925 143.332C112.653 145.848 116.326 148.559 120.173 150.876C123.555 152.894 127.065 154.906 130.735 156.266C140.535 159.926 146.85 157.552 152.425 148.75C156.63 142.139 159.421 134.923 161.295 127.367C162.664 121.927 163.675 116.409 164.817 110.948C165.413 108.056 166.035 105.065 169.576 104.47C172.927 103.949 174.846 106.298 176.605 108.687C177.332 109.712 177.903 110.841 178.505 111.937C179.677 114.162 181.009 116.347 181.962 118.68C189.162 135.978 203.254 141.193 220.494 140.556C223.672 140.43 226.833 139.307 229.979 138.539C231.536 138.171 233.038 137.324 234.605 137.15C235.723 136.997 237.441 137.265 237.929 138.013C238.484 138.821 238.183 140.509 237.879 141.521C237.185 143.711 235.093 145.617 233.145 146.55C229.28 148.384 225.149 150.038 220.967 150.665C211.711 152.092 202.6 150.649 193.731 147.587C186.17 144.973 180.886 139.64 177.01 132.886C174.537 128.443 172.442 123.851 169.623 118.299Z" fill="#CECECE"/>
</svg>
