<svg width="30" height="30" viewBox="0 0 30 30" fill="none" xmlns="http://www.w3.org/2000/svg">
<path d="M29.6598 14.8299C29.6598 5.02175 20.3375 -2.04534 10.9056 0.538778C4.79176 2.22316 0 7.86741 0 14.8299C0 23.1629 6.90285 29.9684 15.3838 29.6493C23.3944 29.3354 29.6598 22.7915 29.6598 14.8299ZM1.36907 15.5151H7.21638C7.26863 17.5186 7.47765 19.4175 7.90091 21.2117C6.42733 21.5256 5.05826 22.0016 3.68396 22.5299C2.37236 20.4741 1.47358 18.0992 1.36907 15.5151ZM3.74144 7.18215C5.05826 7.71048 6.47958 8.12896 7.95839 8.50036C7.53513 10.2423 7.27386 12.1934 7.27386 14.1969H1.36907C1.47358 11.6128 2.37236 9.18562 3.74144 7.18215ZM28.343 14.1969H22.4957C22.4434 12.1934 22.2344 10.2946 21.8111 8.50036C23.2847 8.1865 24.6538 7.71048 26.0281 7.18215C27.3449 9.18562 28.2384 11.6128 28.343 14.1969ZM25.9758 22.4776C24.659 21.9493 23.2377 21.5308 21.7589 21.1594C22.1821 19.4175 22.4434 17.4663 22.4434 15.4628H28.2907C28.2384 18.0992 27.3449 20.4741 25.9758 22.4776ZM15.5405 15.5151H21.1788C21.1266 17.414 20.9176 19.2605 20.4943 20.9449C18.864 20.6311 17.2284 20.4689 15.4883 20.4689V15.5099H15.5405V15.5151ZM15.5405 14.1969V9.29024C17.2284 9.23793 18.911 9.081 20.5466 8.81422C20.9698 10.5038 21.1788 12.3504 21.2311 14.244L15.5405 14.1969ZM15.5405 7.91972V1.38097C16.9096 1.70006 18.1742 2.96073 19.2297 5.07405C19.6007 5.81163 19.9143 6.60151 20.1755 7.44893C18.6497 7.76279 17.0716 7.91972 15.5405 7.91972ZM14.2237 7.91972C12.6404 7.86741 11.1146 7.71048 9.58874 7.4437C9.85001 6.60151 10.1688 5.80639 10.5398 5.06882C11.5953 2.96073 12.8599 1.69483 14.229 1.37574V7.91972H14.2237ZM14.2237 9.23793V14.1446H8.53319C8.58545 12.2458 8.79447 10.3992 9.21773 8.71483C10.8533 9.02869 12.4889 9.23793 14.2237 9.23793ZM14.2237 15.5151V20.4218C12.5359 20.4741 10.8533 20.6311 9.21773 20.8978C8.79447 19.2082 8.58545 17.3617 8.53319 15.4681H14.2237V15.5151ZM14.2237 21.74V28.2788C12.8547 27.9597 11.5901 26.699 10.5345 24.5857C10.1635 23.8481 9.85001 23.0582 9.58351 22.2108C11.0623 21.9493 12.6456 21.7923 14.2237 21.74ZM15.5405 21.74C17.1186 21.7923 18.6497 21.9493 20.1755 22.216C19.9143 23.0582 19.5955 23.8533 19.2297 24.5909C18.1742 26.699 16.9096 27.9649 15.5405 28.284V21.74ZM21.4453 22.4253C22.7099 22.6868 23.9745 23.1105 25.1345 23.5343C23.4467 25.5377 21.1841 27.0129 18.6027 27.808C19.9665 26.3799 20.8653 24.3241 21.4453 22.4253ZM21.4453 7.23446C20.8653 5.3356 19.9717 3.33213 18.6027 1.85699C21.1841 2.59456 23.4519 4.12724 25.1345 6.13072C23.9692 6.5492 22.7099 6.9206 21.4453 7.23446ZM11.1146 1.85699C9.7455 3.27982 8.85195 5.3356 8.27192 7.23446C7.00736 6.97291 5.74279 6.5492 4.58274 6.12549C6.27057 4.12201 8.53319 2.59456 11.1146 1.85699ZM8.27192 22.4253C8.85195 24.3241 9.7455 26.3276 11.1146 27.8028C8.53319 27.0652 6.26534 25.5325 4.58274 23.529C5.74279 23.1105 7.00736 22.7391 8.27192 22.4253Z" fill="#686767"/>
</svg>
