<svg width="108" height="166" viewBox="0 0 108 166" fill="none" xmlns="http://www.w3.org/2000/svg">
<path d="M47.9725 107.958C45.0463 125.761 39.3895 142.988 31.2081 159.012C30.7364 159.907 30.5617 160.931 30.7102 161.934C30.8586 162.938 31.3222 163.865 32.0318 164.579C32.7415 165.293 33.6593 165.755 34.6486 165.897C35.638 166.039 36.646 165.853 37.5226 165.366C84.6308 137.513 105.251 96.8392 107.822 64.2777C110.057 35.914 91.0572 7.15322 62.5017 1.87758C55.4832 0.528292 48.2677 0.641641 41.2937 2.21072C34.3197 3.77981 27.7327 6.77186 21.933 11.0051C16.1333 15.2384 11.2421 20.6244 7.55635 26.836C3.87064 33.0476 1.46741 39.955 0.492789 47.1386C-0.481838 54.3221 -0.00751929 61.6318 1.88684 68.6236C3.78121 75.6153 7.05603 82.1431 11.5125 87.8103C15.9689 93.4775 21.5139 98.1657 27.8105 101.59C34.107 105.015 41.0237 107.104 48.1402 107.731L47.9725 107.958Z" fill="#CD2C39"/>
</svg>
