<svg width="282" height="298" viewBox="0 0 282 298" fill="none" xmlns="http://www.w3.org/2000/svg">
<path d="M143.218 65.4553C142.339 71.1921 141.717 76.0689 140.821 80.8882C139.334 89.068 137.502 97.0801 132.653 104.136C127.726 111.29 120.927 114.567 112.546 113.134C107.401 112.246 102.511 109.964 97.5832 108.131C95.6604 107.404 93.9107 106.123 91.2166 104.626C92.6674 108.966 93.8603 112.358 94.9102 115.795C97.5113 124.185 100.457 132.475 102.479 140.991C105.31 152.646 100.158 160.419 88.3384 162.853C83.7029 163.804 78.7891 163.631 73.988 163.919C72.5438 163.997 71.1051 163.866 69.3805 163.828C74.5827 170.345 79.6205 176.466 84.3791 182.737C95.474 197.381 86.1318 208.16 73.7361 211.254C70.421 212.082 66.8356 212.111 63.3741 212.185C61.0573 212.156 59.015 210.909 59.0752 208.352C59.104 206.035 61.0783 205.154 63.2374 204.845C65.3638 204.51 67.5364 204.319 69.5772 203.756C71.9624 203.095 74.3735 202.401 76.5876 201.285C82.8076 198.134 84.2723 193.872 80.7836 187.809C78.3308 183.525 75.2354 179.583 72.2311 175.659C69.4363 172.008 66.4467 168.468 63.4572 164.928C61.9393 163.087 60.4732 161.181 61.4318 158.697C62.5254 155.842 65.2124 155.739 67.6912 155.63C70.8466 155.473 73.9975 155.791 77.1326 155.458C81.0939 155.089 85.0743 154.629 88.8768 153.656C94.0311 152.318 95.8159 149.799 95.1743 144.504C94.5596 139.445 93.6388 134.301 92.2115 129.395C89.0999 118.899 85.6507 108.561 82.1689 98.1976C81.3511 95.7415 81.1334 93.6016 83.1559 91.8551C85.0681 90.1808 87.1598 90.8287 89.1627 91.9912C92.725 94.0707 96.2489 96.3326 99.9079 98.223C103.123 99.8681 106.456 101.5 109.896 102.526C119.084 105.289 124.721 102.74 129.297 94.3509C132.751 88.0495 134.875 81.279 136.138 74.252C137.066 69.1917 137.661 64.0809 138.381 59.015C138.753 56.3323 139.144 53.5585 142.349 52.8024C145.385 52.1252 147.281 54.1601 149.034 56.2412C149.76 57.1359 150.35 58.1355 150.966 59.1023C152.172 61.0687 153.521 62.9888 154.533 65.0667C162.156 80.4682 175.364 84.3986 191.104 82.7865C194.005 82.4808 196.831 81.2644 199.664 80.3733C201.067 79.9441 202.391 79.0793 203.815 78.8257C204.829 78.6195 206.418 78.7621 206.909 79.4171C207.465 80.124 207.29 81.6865 207.073 82.631C206.568 84.6766 204.767 86.5456 203.04 87.5164C199.613 89.4252 195.931 91.1855 192.141 92.0092C183.755 93.8685 175.331 93.0925 167.03 90.8192C159.955 88.8789 154.8 84.3141 150.85 78.3644C148.321 74.4452 146.129 70.3684 143.218 65.4553Z" fill="#8BA7F8"/>
</svg>
