<svg width="347" height="347" viewBox="0 0 347 347" fill="none" xmlns="http://www.w3.org/2000/svg">
<path d="M157.443 248.135C156.867 241.833 156.245 236.509 155.928 231.173C155.352 222.127 155.187 213.167 158.466 204.427C161.801 195.562 168.135 190.308 177.381 189.624C183.058 189.213 188.833 190.344 194.529 190.989C196.755 191.253 198.943 192.149 202.187 193.026C199.512 188.814 197.359 185.538 195.345 182.176C190.389 173.981 185.095 165.982 180.718 157.501C174.662 145.91 178.073 136.332 189.942 130.652C194.597 128.428 199.843 127.321 204.848 125.755C206.356 125.293 207.913 125.053 209.748 124.641C202.531 119.111 195.592 113.956 188.91 108.569C173.323 95.9858 180.378 82.126 192.684 75.5966C195.974 73.8497 199.761 72.8775 203.405 71.8902C205.864 71.3122 208.353 72.0953 208.961 74.8178C209.539 77.277 207.681 78.7275 205.477 79.6214C203.315 80.5342 201.066 81.3078 199.054 82.4386C196.703 83.7649 194.334 85.1325 192.284 86.895C186.529 91.8631 186.098 96.7583 191.383 102.258C195.103 106.147 199.414 109.506 203.624 112.87C207.54 115.999 211.634 118.96 215.727 121.921C217.817 123.471 219.869 125.104 219.507 127.984C219.099 131.292 216.283 132.107 213.688 132.873C210.39 133.868 206.972 134.359 203.742 135.534C199.647 136.965 195.556 138.497 191.787 140.526C186.684 143.295 185.457 146.43 187.526 151.864C189.505 157.057 191.831 162.258 194.63 167.076C200.679 177.366 207.044 187.4 213.45 197.453C214.96 199.837 215.753 202.045 214.071 204.424C212.487 206.698 210.103 206.562 207.679 205.858C203.363 204.592 199.04 203.124 194.671 202.085C190.836 201.188 186.881 200.337 182.971 200.155C172.522 199.642 167.227 203.821 164.587 213.9C162.587 221.476 162.117 229.198 162.625 236.967C162.973 242.565 163.685 248.13 164.254 253.68C164.564 256.617 164.879 259.655 161.686 261.297C158.651 262.811 156.11 261.155 153.708 259.413C152.705 258.657 151.818 257.754 150.912 256.893C149.119 255.129 147.188 253.451 145.572 251.518C133.46 237.221 118.45 236.53 102.216 242.37C99.2266 243.455 96.5562 245.484 93.7919 247.171C92.4192 247.994 91.2456 249.257 89.8053 249.899C88.7861 250.384 87.0677 250.65 86.3761 250.086C85.6019 249.484 85.377 247.785 85.3586 246.728C85.3559 244.431 86.7707 241.98 88.3429 240.499C91.4687 237.579 94.9027 234.749 98.6972 232.882C107.084 228.712 116.202 227.321 125.583 227.547C133.58 227.742 140.234 231.219 145.977 236.478C149.682 239.961 153.072 243.7 157.443 248.135Z" fill="#CECECE"/>
</svg>
