<svg width="338" height="270" viewBox="0 0 338 270" fill="none" xmlns="http://www.w3.org/2000/svg">
<path d="M199.218 37.4553C198.339 43.1921 197.717 48.0689 196.821 52.8882C195.334 61.068 193.502 69.0801 188.653 76.136C183.726 83.2899 176.927 86.5672 168.546 85.1338C163.401 84.2456 158.511 81.9637 153.583 80.131C151.66 79.4042 149.911 78.1235 147.217 76.6257C148.667 80.9662 149.86 84.3577 150.91 87.7954C153.511 96.1848 156.457 104.475 158.479 112.991C161.31 124.646 156.158 132.419 144.338 134.853C139.703 135.804 134.789 135.631 129.988 135.919C128.544 135.997 127.105 135.866 125.38 135.828C130.583 142.345 135.62 148.466 140.379 154.737C151.474 169.381 142.132 180.16 129.736 183.254C126.421 184.082 122.836 184.111 119.374 184.185C117.057 184.156 115.015 182.909 115.075 180.352C115.104 178.035 117.078 177.154 119.237 176.845C121.364 176.51 123.536 176.319 125.577 175.756C127.962 175.095 130.374 174.401 132.588 173.285C138.808 170.134 140.272 165.872 136.784 159.809C134.331 155.525 131.235 151.583 128.231 147.659C125.436 144.008 122.447 140.468 119.457 136.928C117.939 135.087 116.473 133.181 117.432 130.697C118.525 127.842 121.212 127.739 123.691 127.63C126.847 127.473 129.998 127.791 133.133 127.458C137.094 127.089 141.074 126.629 144.877 125.656C150.031 124.318 151.816 121.799 151.174 116.504C150.56 111.445 149.639 106.301 148.211 101.395C145.1 90.8992 141.651 80.5613 138.169 70.1976C137.351 67.7415 137.133 65.6016 139.156 63.8551C141.068 62.1808 143.16 62.8287 145.163 63.9912C148.725 66.0707 152.249 68.3326 155.908 70.223C159.123 71.8681 162.456 73.4997 165.896 74.5256C175.084 77.2895 180.721 74.7396 185.297 66.3509C188.751 60.0495 190.875 53.279 192.138 46.252C193.066 41.1917 193.661 36.0809 194.381 31.015C194.753 28.3323 195.144 25.5585 198.349 24.8024C201.385 24.1252 203.281 26.1601 205.034 28.2412C205.76 29.1359 206.35 30.1355 206.966 31.1023C208.172 33.0687 209.521 34.9888 210.533 37.0667C218.156 52.4682 231.364 56.3986 247.104 54.7865C250.005 54.4808 252.831 53.2644 255.664 52.3733C257.067 51.9441 258.391 51.0793 259.815 50.8257C260.829 50.6195 262.418 50.7621 262.909 51.4171C263.465 52.124 263.29 53.6865 263.073 54.631C262.568 56.6766 260.767 58.5456 259.04 59.5164C255.613 61.4252 251.931 63.1855 248.141 64.0092C239.755 65.8685 231.331 65.0925 223.03 62.8192C215.955 60.8789 210.8 56.3141 206.85 50.3644C204.321 46.4452 202.129 42.3684 199.218 37.4553Z" fill="#FFDE94"/>
</svg>
