<svg width="113" height="109" viewBox="0 0 113 109" fill="none" xmlns="http://www.w3.org/2000/svg">
<path d="M53.2927 53.0686C53.5837 51.3743 53.7249 50.0048 54.0765 48.6544C57.5824 35.0115 63.9347 22.6184 71.336 10.7389C72.2074 9.34947 73.3264 8.01114 74.6153 7.07819C75.3091 6.57316 76.7696 6.53326 77.6349 6.92129C78.2846 7.22097 78.8364 8.53845 78.755 9.31111C78.6217 10.7845 78.2138 12.3134 77.5849 13.6846C73.4561 22.7401 69.2899 31.7636 65.0519 40.7576C63.4574 44.1177 61.7563 47.4509 60.0898 50.7816C59.5467 51.9024 58.9318 52.9939 58.2769 54.0186C57.5632 55.1872 56.3999 55.9365 55.1327 55.2999C54.2993 54.8746 53.4071 54.5931 53.2927 53.0686Z" fill="#8BA7F8"/>
<path d="M106.226 100.98C104.542 100.827 102.586 100.765 100.684 100.49C93.1788 99.3802 85.6739 98.2709 78.1985 97.0896C76.5761 96.8281 74.9675 96.2868 73.4898 95.6311C71.5087 94.7693 70.7438 93.3981 70.9386 91.8156C71.1335 90.233 72.308 89.1693 74.4882 88.9708C75.9755 88.8244 77.5719 88.7394 79.0185 88.9793C88.5157 90.636 98.0181 92.362 107.488 94.1252C108.549 94.3244 109.659 94.7289 110.508 95.3621C112.645 96.909 112.222 99.6237 109.707 100.474C108.72 100.792 107.569 100.774 106.226 100.98Z" fill="#8BA7F8"/>
<path d="M1.89374 15.3928C1.91013 13.7539 2.13442 12.0995 2.4306 10.4744C2.70513 9.02525 3.59989 7.94766 5.14866 7.69207C6.45749 7.48933 7.97686 8.69936 8.31475 10.4162C8.76613 12.7168 9.18547 15.0547 9.25572 17.3839C9.46907 24.4063 9.54643 31.4737 9.58654 38.509C9.5875 40.8434 9.44986 43.1883 9.24293 45.5383C9.16413 46.3456 8.94934 47.198 8.54572 47.8554C7.46562 49.7135 5.23774 49.7413 4.22854 47.9006C3.66286 46.8629 3.35618 45.5619 3.26778 44.3839C2.80334 40.5163 1.8749 21.1782 1.89374 15.3928Z" fill="#8BA7F8"/>
</svg>
