<svg width="109" height="166" viewBox="0 0 109 166" fill="none" xmlns="http://www.w3.org/2000/svg">
<path d="M48.4426 107.962C45.4681 125.758 39.7625 142.981 31.5301 159.014C31.0543 159.908 30.8781 160.933 31.0278 161.936C31.1776 162.939 31.6453 163.866 32.3612 164.58C33.0771 165.294 34.003 165.756 35.0011 165.898C35.9992 166.04 37.0162 165.854 37.9005 165.367C85.4247 137.515 106.227 96.8439 108.82 64.2841C111.075 35.922 91.9078 7.16275 63.1002 1.88739C56.0146 0.530639 48.7288 0.638853 41.6862 2.20543C34.6435 3.77201 27.9914 6.76419 22.1346 10.9999C16.2778 15.2355 11.3388 20.6261 7.61831 26.8434C3.89784 33.0608 1.47366 39.9749 0.493326 47.1649C-0.487013 54.3549 -0.00294203 61.6705 1.91595 68.6663C3.83484 75.6621 7.14842 82.1919 11.6551 87.8582C16.1618 93.5244 21.7673 98.2087 28.1305 101.626C34.4936 105.043 41.4812 107.121 48.6681 107.735L48.4426 107.962Z" fill="#204448"/>
</svg>
