<svg width="347" height="347" viewBox="0 0 347 347" fill="none" xmlns="http://www.w3.org/2000/svg">
<path d="M157.443 248.139C156.866 241.837 156.244 236.513 155.927 231.177C155.352 222.131 155.187 213.171 158.465 204.43C161.8 195.566 168.134 190.312 177.38 189.628C183.058 189.217 188.833 190.348 194.529 190.993C196.754 191.257 198.942 192.153 202.187 193.03C199.511 188.818 197.358 185.542 195.345 182.18C190.389 173.985 185.094 165.986 180.718 157.505C174.662 145.914 178.072 136.336 189.941 130.656C194.597 128.432 199.842 127.325 204.847 125.759C206.355 125.297 207.912 125.057 209.747 124.645C202.53 119.114 195.592 113.96 188.909 108.573C173.322 95.9897 180.378 82.1299 192.683 75.6005C195.974 73.8536 199.76 72.8814 203.404 71.8941C205.863 71.3161 208.352 72.0992 208.96 74.8217C209.538 77.2809 207.68 78.7314 205.476 79.6254C203.314 80.5381 201.065 81.3117 199.053 82.4425C196.703 83.7688 194.333 85.1364 192.284 86.8989C186.529 91.867 186.098 96.7622 191.382 102.261C195.103 106.151 199.414 109.51 203.624 112.873C207.54 116.003 211.633 118.964 215.727 121.925C217.816 123.475 219.869 125.108 219.506 127.988C219.099 131.296 216.282 132.111 213.688 132.877C210.39 133.872 206.972 134.363 203.742 135.538C199.646 136.969 195.555 138.501 191.787 140.53C186.683 143.299 185.456 146.434 187.526 151.868C189.505 157.061 191.83 162.262 194.629 167.08C200.678 177.37 207.043 187.404 213.449 197.457C214.96 199.841 215.752 202.049 214.071 204.428C212.487 206.702 210.103 206.566 207.678 205.862C203.362 204.596 199.039 203.128 194.67 202.089C190.836 201.192 186.881 200.341 182.97 200.158C172.522 199.646 167.226 203.825 164.586 213.904C162.586 221.48 162.117 229.202 162.625 236.97C162.972 242.569 163.684 248.134 164.253 253.684C164.564 256.621 164.878 259.659 161.686 261.3C158.651 262.814 156.11 261.159 153.708 259.417C152.704 258.661 151.817 257.758 150.912 256.897C149.119 255.133 147.187 253.455 145.571 251.522C133.459 237.225 118.45 236.534 102.216 242.374C99.2261 243.459 96.5557 245.488 93.7914 247.175C92.4187 247.998 91.2451 249.261 89.8048 249.903C88.7856 250.388 87.0672 250.654 86.3757 250.09C85.6014 249.488 85.3765 247.788 85.3582 246.732C85.3554 244.435 86.7702 241.984 88.3425 240.503C91.4682 237.583 94.9022 234.753 98.6967 232.886C107.083 228.716 116.202 227.325 125.582 227.551C133.58 227.746 140.233 231.223 145.976 236.482C149.682 239.965 153.072 243.704 157.443 248.139Z" fill="white"/>
</svg>
