<svg width="338" height="276" viewBox="0 0 338 276" fill="none" xmlns="http://www.w3.org/2000/svg">
<path d="M199.218 43.4553C198.339 49.1921 197.717 54.0689 196.821 58.8882C195.334 67.068 193.502 75.0801 188.653 82.136C183.726 89.2899 176.927 92.5672 168.546 91.1338C163.401 90.2456 158.511 87.9637 153.583 86.131C151.66 85.4042 149.911 84.1235 147.217 82.6257C148.667 86.9662 149.86 90.3577 150.91 93.7954C153.511 102.185 156.457 110.475 158.479 118.991C161.31 130.646 156.158 138.419 144.338 140.853C139.703 141.804 134.789 141.631 129.988 141.919C128.544 141.997 127.105 141.866 125.38 141.828C130.583 148.345 135.62 154.466 140.379 160.737C151.474 175.381 142.132 186.16 129.736 189.254C126.421 190.082 122.836 190.111 119.374 190.185C117.057 190.156 115.015 188.909 115.075 186.352C115.104 184.035 117.078 183.154 119.237 182.845C121.364 182.51 123.536 182.319 125.577 181.756C127.962 181.095 130.374 180.401 132.588 179.285C138.808 176.134 140.272 171.872 136.784 165.809C134.331 161.525 131.235 157.583 128.231 153.659C125.436 150.008 122.447 146.468 119.457 142.928C117.939 141.087 116.473 139.181 117.432 136.697C118.525 133.842 121.212 133.739 123.691 133.63C126.847 133.473 129.998 133.791 133.133 133.458C137.094 133.089 141.074 132.629 144.877 131.656C150.031 130.318 151.816 127.799 151.174 122.504C150.56 117.445 149.639 112.301 148.211 107.395C145.1 96.8992 141.651 86.5613 138.169 76.1976C137.351 73.7415 137.133 71.6016 139.156 69.8551C141.068 68.1808 143.16 68.8287 145.163 69.9912C148.725 72.0707 152.249 74.3326 155.908 76.223C159.123 77.8681 162.456 79.4997 165.896 80.5256C175.084 83.2895 180.721 80.7396 185.297 72.3509C188.751 66.0495 190.875 59.279 192.138 52.252C193.066 47.1917 193.661 42.0809 194.381 37.015C194.753 34.3323 195.144 31.5585 198.349 30.8024C201.385 30.1252 203.281 32.1601 205.034 34.2412C205.76 35.1359 206.35 36.1355 206.966 37.1023C208.172 39.0687 209.521 40.9888 210.533 43.0667C218.156 58.4682 231.364 62.3986 247.104 60.7865C250.005 60.4808 252.831 59.2644 255.664 58.3733C257.067 57.9441 258.391 57.0793 259.815 56.8257C260.829 56.6195 262.418 56.7621 262.909 57.4171C263.465 58.124 263.29 59.6865 263.073 60.631C262.568 62.6766 260.767 64.5456 259.04 65.5164C255.613 67.4252 251.931 69.1855 248.141 70.0092C239.755 71.8685 231.331 71.0925 223.03 68.8192C215.955 66.8789 210.8 62.3141 206.85 56.3644C204.321 52.4452 202.129 48.3684 199.218 43.4553Z" fill="#FBA4A5"/>
</svg>
